<svg xmlns="http://www.w3.org/2000/svg" viewBox="0 0 58.19 65.66"><defs><style>.cls-1{fill:#e7ad42;}.cls-2{fill:#7dbae8;}.cls-3{fill:#bbdeec;}.cls-4{fill:#4880c1;}.cls-5{fill:#f2d031;}.cls-6{fill:#fff;}.cls-7{fill:#272425;}</style></defs><g id="Layer_2" data-name="Layer 2"><g id="OBJECTS"><rect class="cls-1" x="36.65" width="8.67" height="3.9"/><rect class="cls-2" x="0.24" y="3.42" width="57.74" height="57.74" rx="10.01"/><path class="cls-3" d="M29.09,25.3s-1.78-6.83-10.75-8S.8,13,.78,9.12a107.17,107.17,0,0,1,13.66,1.23C25,11.91,28.54,18.86,29.09,25.3Z"/><path class="cls-3" d="M29.09,25.3s1.79-6.83,10.76-8S57.39,13,57.41,9.12a107.17,107.17,0,0,0-13.66,1.23C33.22,11.91,29.65,18.86,29.09,25.3Z"/><rect class="cls-4" x="11.39" y="56.66" width="2" height="9"/><rect class="cls-4" x="15.39" y="56.66" width="2" height="9"/><rect class="cls-4" x="19.39" y="56.66" width="2" height="9"/><rect class="cls-4" x="36.8" y="56.66" width="2" height="9"/><rect class="cls-4" x="40.8" y="56.66" width="2" height="9"/><rect class="cls-4" x="44.8" y="56.66" width="2" height="9"/><polygon class="cls-1" points="29.1 54.43 29.1 30.99 21.15 38.92 29.1 54.43"/><polygon class="cls-5" points="29.1 54.43 29.1 30.99 37.04 38.92 29.1 54.43"/><path class="cls-6" d="M58.19,29.31A14.6,14.6,0,1,1,43.6,14.71,14.6,14.6,0,0,1,58.19,29.31Z"/><path class="cls-7" d="M48.29,30.28a4.4,4.4,0,0,1-2.52-8A7.08,7.08,0,0,0,43.6,22,7.37,7.37,0,1,0,51,29.36,4.38,4.38,0,0,1,48.29,30.28Z"/><path class="cls-6" d="M29.2,29.31a14.6,14.6,0,1,1-14.6-14.6A14.6,14.6,0,0,1,29.2,29.31Z"/><path class="cls-7" d="M19.3,30.28a4.4,4.4,0,0,1-4.4-4.4,4.36,4.36,0,0,1,1.88-3.6A7.15,7.15,0,0,0,14.6,22,7.37,7.37,0,1,0,22,29.36,4.33,4.33,0,0,1,19.3,30.28Z"/></g></g></svg>